<!-- star -->
<svg class="w-6 h-6 text-gray-800 dark:text-white" aria-hidden="true" xmlns="http://www.w3.org/2000/svg" width="24" height="24" fill="currentColor" viewBox="0 0 24 24">
  <path d="M13.849 4.22c-.684-1.626-3.014-1.626-3.698 0L8.397 8.387l-4.552.361c-1.775.14-2.495 2.331-1.142 3.477l3.468 2.937-1.06 4.392c-.413 1.713 1.472 3.067 2.992 2.149L12 19.35l3.897 2.354c1.52.918 3.405-.436 2.992-2.15l-1.06-4.39 3.468-2.938c1.353-1.146.633-3.336-1.142-3.477l-4.552-.36-1.754-4.17Z"/>
</svg>
<?xml version="1.0" encoding="utf-8"?>

<!-- arrow -->
<svg version="1.1" id="Layer_1" class="faq-toggle" xmlns="http://www.w3.org/2000/svg" xmlns:xlink="http://www.w3.org/1999/xlink" x="0px" y="0px" width="36px" height="36px" viewBox="0 0 122.883 122.882" enable-background="new 0 0 122.883 122.882" xml:space="preserve"><g><path d="M0,61.441L0,61.441l0.018-0.001c0-16.975,6.872-32.334,17.98-43.443C29.106,6.89,44.465,0.018,61.44,0.018V0h0.001h0.001 v0.018c16.974,0,32.335,6.872,43.443,17.98s17.98,26.467,17.98,43.441h0.018v0.002l0,0h-0.018c0,16.976-6.873,32.335-17.98,43.443 c-11.109,11.107-26.467,17.979-43.442,17.979v0.018h-0.002l0,0v-0.018c-16.975,0-32.335-6.872-43.443-17.98 C6.89,93.775,0.018,78.417,0.018,61.442L0,61.441L0,61.441L0,61.441z M42.48,51.182c-1.962-1.909-5.101-1.865-7.009,0.097 s-1.865,5.101,0.097,7.009l22.521,21.839l3.456-3.553l-3.46,3.568c1.971,1.911,5.117,1.862,7.029-0.108 c0.055-0.058,0.109-0.115,0.16-0.175L87.33,58.288c1.963-1.908,2.006-5.046,0.098-7.009s-5.047-2.006-7.01-0.097L61.53,69.655 L42.48,51.182L42.48,51.182z"/></g></svg>

<!-- arrow left -->
<?xml version="1.0" encoding="utf-8"?>
  <svg version="1.1" id="Layer_1" xmlns="http://www.w3.org/2000/svg" xmlns:xlink="http://www.w3.org/1999/xlink" x="0px" y="0px" width="32px" height="32px" viewBox="0 0 66.91 122.88" style="enable-background:new 0 0 66.91 122.88" xml:space="preserve">
   <g>
      <path d="M64.96,111.2c2.65,2.73,2.59,7.08-0.13,9.73c-2.73,2.65-7.08,2.59-9.73-0.14L1.97,66.01l4.93-4.8l-4.95,4.8 c-2.65-2.74-2.59-7.1,0.15-9.76c0.08-0.08,0.16-0.15,0.24-0.22L55.1,2.09c2.65-2.73,7-2.79,9.73-0.14 c2.73,2.65,2.78,7.01,0.13,9.73L16.5,61.23L64.96,111.2L64.96,111.2L64.96,111.2z"/>
    </g>
  </svg>

<!-- arrow right -->
<?xml version="1.0" encoding="utf-8"?>
<svg version="1.1" id="Layer_1" xmlns="http://www.w3.org/2000/svg" xmlns:xlink="http://www.w3.org/1999/xlink" x="0px" y="0px" width="32px" height="32px"  viewBox="0 0 66.91 122.88" style="enable-background:new 0 0 66.91 122.88" xml:space="preserve">
  <g>
    <path d="M1.95,111.2c-2.65,2.72-2.59,7.08,0.14,9.73c2.72,2.65,7.08,2.59,9.73-0.14L64.94,66l-4.93-4.79l4.95,4.8 c2.65-2.74,2.59-7.11-0.15-9.76c-0.08-0.08-0.16-0.15-0.24-0.22L11.81,2.09c-2.65-2.73-7-2.79-9.73-0.14 C-0.64,4.6-0.7,8.95,1.95,11.68l48.46,49.55L1.95,111.2L1.95,111.2L1.95,111.2z"/>
  </g>
</svg>

<!-- man -->
<svg xmlns="http://www.w3.org/2000/svg" width="48px" height="48px"shape-rendering="geometricPrecision" text-rendering="geometricPrecision" image-rendering="optimizeQuality" fill-rule="evenodd" clip-rule="evenodd" viewBox="0 0 494 511.5">
  <path fill="#D9E9F0" fill-rule="nonzero" d="M246.999 0c139.846 0 247 118.492 247 255.749 0 137.286-107.146 255.751-247 255.751C107.136 511.5 0 393.041 0 255.749 0 119.253 106.347 0 246.999 0z"/>
  <path fill="#194794" fill-rule="nonzero" d="M443.262 410.755c-44.365 60.337-114.245 100.375-195.179 100.731a485.973 485.973 0 01-10.864-.202c-77.469-3.082-144.112-42.601-186.864-101.048 14.588-29.09 45.279-46.423 76.205-50.56 31.076-4.154 56.937-8.371 67.876-45.937 2.831 2.48 5.803 4.983 8.835 7.677 28.308 25.167 60.205 26.261 87.478-.041 2.24-2.168 4.433-4.208 6.53-6.193 13.959 31.067 46.917 36.552 74.708 41.926 28.807 5.565 57.181 26.462 71.275 53.647z"/>
  <path fill="#D2A75F" fill-rule="nonzero" d="M297.279 315.189c7.303 16.248 19.804 25.504 34.034 31.396-48.137 35.317-114.594 33.276-164.102 3.093 14.996-8.076 22.505-19.772 27.209-35.947 2.83 2.479 5.812 4.982 8.849 7.685 28.31 25.169 60.208 26.261 87.481-.04 2.24-2.168 4.432-4.209 6.529-6.187z"/>
  <path fill="#DBB26F" fill-rule="nonzero" d="M249.676 372.686c-28.788.127-57.743-7.941-82.465-23.008 14.94-8.044 22.641-19.923 27.217-35.947 2.838 2.479 5.804 4.982 8.841 7.685 14.869 13.218 30.742 19.795 46.407 19.253v32.017z"/>
  <path fill="#E9BE79" d="M149.695 229.121c3.736-10.692 12.422-7.254 24.8-2.737-4.944-22.418.89-39.929 18.442-52.069 37.446-25.908 54.37-3.733 94.957-36.414 23.316 11.743 44.177 31.595 33.547 93.617 11.252-8.527 27.477-7.732 22.374 11.156l-6.972 19.747c-1.667 4.726-2.782 6.44-8.754 6.119-2.64-.14-5.293-1.156-7.94-2.906 2.445 29.138-11.701 38.645-29.404 55.732-27.267 26.312-59.166 25.226-87.468.048-16.578-14.745-31.301-23.7-32.035-54.014-4.3 1.317-8.362 1.557-11.912-.461-7.072-4.025-9.648-15.739-10.035-23.243-.154-3.015-.026-11.503.4-14.575z"/>
  <path fill="#F2CD8C" d="M149.696 229.121c3.739-10.693 12.419-7.251 24.799-2.737l-.111-.534.111.061c6.452-67.735 40.082-57.55 75.178-66.2v180.957c-15.661.548-31.528-6.024-46.398-19.254-16.577-14.745-31.301-23.697-32.031-54.012-4.297 1.314-8.364 1.555-11.911-.463-10.301-5.863-11.132-27.064-9.637-37.818z"/>
  <path fill="#462917" d="M128.296 133.328c54.61-67.481 117.552-104.183 164.815-44.153 57.919 3.041 78.011 97.546 29.434 134.416 3.891-51.331-11.304-74.352-34.8-85.921-44.719 48.763-104.421-4.43-113.25 88.238l-21.432-11.162c-2.128-26.578 4.097-72.688-24.767-81.418z"/>
</svg>


<!-- woman -->
<svg xmlns="http://www.w3.org/2000/svg" width="48px" height="48px" shape-rendering="geometricPrecision" text-rendering="geometricPrecision" image-rendering="optimizeQuality" fill-rule="evenodd" clip-rule="evenodd" viewBox="0 0 494 511.501"><path fill="#D9E9F0" fill-rule="nonzero" d="M246.999 0C386.845 0 494 118.492 494 255.749c0 137.287-107.147 255.752-247.001 255.752C107.136 511.501 0 393.042 0 255.749 0 119.254 106.347 0 246.999 0z"/>
  <path fill="#BD2122" fill-rule="nonzero" d="M450.855 399.843c-43.922 66.659-117.67 111.658-203.856 111.658-86.191 0-159.939-44.995-203.859-111.652 2.817-23.199 9.193-37.895 20.51-51.22 39.797-46.896 119.442-22.338 139.958-57.638h85.86c19.556 25.91 104.6 18.058 139.555 56.564 12.142 13.382 18.906 28.218 21.832 52.288z"/>
  <path fill="#DA9C69" d="M135.123 319.959c75.384 73.251 148.808 76.477 223.756 0-45.151-10.599-75.456-16.634-70.835-54.522-22.521 19.342-57.648 21.983-81.425 2.291l-.095-.067c-1.932 41.905-37.371 44.786-71.401 52.298z"/>
  <path fill="#DEA678" d="M135.123 319.959c37.635 36.571 74.785 55.683 111.878 56.143v-94.856c-14.304.426-28.709-3.854-40.382-13.518l-.095-.067c-1.932 41.905-37.371 44.786-71.401 52.298z"/>
  <path fill="#502F1B" d="M93.663 300.435c34.634-2.814 47.365-38.795 51.632-76.104 6.5-57.115-2.517-130.601 66.223-158.385 54.585-22.075 125.171 7.641 132.87 86.28-.322 53.439 14.707 144.326 62.537 148.209-10.594 29.83-139.628 30.789-118.742-26.346-25.627 17.66-51.493 19.218-79.728 1.687 3.399 61.488-104.198 54.489-114.792 24.659z"/>
  <path fill="#E9BE79" d="M292.763 270.636c30.382-33.603 34.996-67.424 26.337-110.587-20.888-9.681-34.549-30.962-41.549-62.937-8.362 60.874-83.122 58.261-101.921 69.337 0 35.72-3.698 61.224 16.996 94.048 2.64 4.191 5.215 8.234 8.326 11.59 25.12 27.084 68.068 23.693 91.811-1.451z"/>
  <path fill="#F2CD8C" d="M247.81 142.139c-25.741 15.76-60.242 17.277-72.182 24.311 0 5.124-.125 9.972-.247 14.611-.848 31.34 1.469 54.415 17.243 79.439 2.642 4.188 5.221 8.231 8.328 11.586 12.668 13.655 29.872 19.564 46.858 18.843v-148.79z"/>
</svg>
